<svg aria-hidden="true" style="width:0;height:0;position:absolute;overflow:hidden" xmlns="http://www.w3.org/2000/svg"><defs><symbol id="icon-hand" viewBox="0 0 24 32"><path fill="#7eb101" style="fill:var(--color1,#7eb101)" d="M11.587.368c2.231 0 4.138.779 5.72 2.336s2.372 3.451 2.372 5.683c0 1.275-.276 2.477-.828 3.605s-1.33 2.084-2.336 2.869h-1.251v-1.839c.711-.564 1.257-1.251 1.637-2.06s.57-1.667.57-2.575c0-1.618-.576-2.992-1.729-4.12s-2.538-1.692-4.156-1.692c-1.618 0-3.004.564-4.156 1.692s-1.729 2.501-1.729 4.12c0 .907.19 1.766.57 2.575s.926 1.496 1.637 2.06v2.648c-1.373-.711-2.452-1.717-3.237-3.016S3.494 9.932 3.494 8.387c0-2.231.791-4.126 2.372-5.683S9.354.368 11.586.368zm-1.398 30.896a3.032 3.032 0 0 1-2.133-.883L.479 22.804l2.06-2.133c.343-.343.73-.607 1.159-.791s.877-.215 1.343-.092l2.869.662V8.459c0-1.03.356-1.9 1.067-2.611s1.582-1.067 2.612-1.067 1.9.356 2.611 1.067 1.067 1.582 1.067 2.611v6.326h.956c.123 0 .233.024.331.073s.208.098.331.147l5.444 2.648c.588.27 1.024.705 1.306 1.306s.362 1.22.239 1.857l-1.324 8.018c-.123.711-.466 1.293-1.03 1.747s-1.202.68-1.913.68h-9.416zm-.294-2.207h10.336l1.582-9.159-6.731-3.347h-2.023V8.459c0-.441-.135-.797-.405-1.067s-.625-.405-1.067-.405-.797.135-1.067.405c-.27.27-.405.625-.405 1.067v14.676l-5.664-1.214-.846.846 6.29 6.29zm10.335 0z"/></symbol><symbol id="icon-rocket" viewBox="0 0 32 32"><path fill="#7eb101" style="fill:var(--color1,#7eb101)" d="m4.838 13.295 4.038 1.714c.457-.914.946-1.816 1.467-2.705s1.073-1.74 1.657-2.552l-3.01-.61-4.152 4.152zm5.867 3.086 5.067 5.067c1.448-.66 2.806-1.41 4.076-2.248s2.298-1.651 3.086-2.438c2.057-2.057 3.568-4.165 4.533-6.324s1.486-4.597 1.562-7.314c-2.718.076-5.156.597-7.314 1.562s-4.267 2.476-6.324 4.533c-.787.787-1.6 1.816-2.438 3.086s-1.587 2.629-2.248 4.076zm8.724-3.657c-.508-.508-.762-1.137-.762-1.886s.254-1.378.762-1.886 1.136-.762 1.886-.762c.749 0 1.378.254 1.886.762s.762 1.136.762 1.886c0 .749-.254 1.378-.762 1.886s-1.136.762-1.886.762-1.378-.254-1.886-.762zm-.572 14.59 4.152-4.152-.61-3.009c-.813.584-1.664 1.136-2.552 1.657s-1.791 1.009-2.705 1.467l1.714 4.038zM31.276.876c.229 3.454-.203 6.603-1.295 9.448s-2.895 5.524-5.41 8.038l-.152.152.838 4.191c.076.381.057.749-.057 1.105s-.311.673-.59.952l-6.514 6.552-3.238-7.543-6.476-6.476-7.543-3.238 6.552-6.514c.279-.279.597-.476.952-.59s.724-.133 1.105-.057l4.19.838c.025-.025.051-.044.076-.057s.051-.032.076-.057c2.514-2.514 5.194-4.324 8.038-5.429S27.822.648 31.276.877zM3.39 21.905c.889-.889 1.975-1.34 3.257-1.352s2.368.425 3.257 1.314c.889.889 1.327 1.974 1.314 3.257s-.463 2.368-1.352 3.257c-.66.66-1.683 1.206-3.067 1.638s-3.46.838-6.229 1.219c.381-2.768.781-4.851 1.2-6.248s.959-2.425 1.619-3.086zm1.6 1.638c-.356.381-.673.978-.952 1.791s-.521 1.854-.724 3.124c1.27-.203 2.311-.444 3.124-.724s1.41-.597 1.79-.952c.483-.432.73-.971.743-1.619s-.21-1.213-.667-1.695c-.483-.457-1.048-.679-1.695-.667s-1.187.26-1.619.743z"/></symbol><symbol id="icon-arrow" viewBox="0 0 19 32"><path d="M17.903 15.592a1.264 1.264 0 0 1 0 1.788L5.015 30.268a1.264 1.264 0 0 1-1.788 0l-.596-.596a1.264 1.264 0 0 1 0-1.788L14.03 16.486 2.631 5.087a1.264 1.264 0 0 1 0-1.788l.596-.596a1.264 1.264 0 0 1 1.788 0l12.888 12.888z"/></symbol><symbol id="icon-star" viewBox="0 0 34 32"><path fill="#ffe550" style="fill:var(--color1,#ffe550)" d="M15.421 1.037c.584-1.383 2.575-1.383 3.159 0l3.449 8.164a1.71 1.71 0 0 0 1.443 1.032l8.952.707c1.517.12 2.132 1.983.976 2.958l-6.821 5.752a1.67 1.67 0 0 0-.551 1.67l2.084 8.6c.353 1.457-1.257 2.609-2.556 1.828l-7.664-4.609a1.734 1.734 0 0 0-1.783 0l-7.664 4.609c-1.299.781-2.909-.371-2.556-1.828l2.084-8.6a1.67 1.67 0 0 0-.551-1.67L.601 13.898c-1.156-.975-.541-2.838.976-2.958l8.952-.707a1.71 1.71 0 0 0 1.443-1.032l3.449-8.164z"/></symbol><symbol id="logo" viewBox="0 0 44 32"><path fill="#FFE553" style="fill:var(--color2,#ffe553)" d="M16.495 6.456c1.013-1.982 3.846-1.982 4.86 0l1.283 2.51a2.731 2.731 0 0 0 2.002 1.453l2.78.441c2.202.35 3.078 3.049 1.501 4.625l-1.984 1.983a2.728 2.728 0 0 0-.766 2.356l.438 2.773c.348 2.2-1.945 3.868-3.931 2.859l-2.517-1.278a2.73 2.73 0 0 0-2.471 0l-2.517 1.278c-1.986 1.009-4.279-.659-3.931-2.859l.438-2.773a2.732 2.732 0 0 0-.766-2.356l-1.983-1.983c-1.577-1.576-.701-4.275 1.501-4.625l2.78-.441a2.731 2.731 0 0 0 2.002-1.453l1.283-2.51z"/><path fill="#2C2C2C" style="fill:var(--color3,#2c2c2c)" d="m3.476 20.533-.021.005a31 31 0 0 1-.011.9c-.003.524-.004.868-.002 1.032 0 .157-.003.285-.01.384l.001.336c-.001.12-.008.219-.02.296l-.018.206c-.014.13-.042.201-.085.211-.092.022-.236-.049-.432-.212-.197-.17-.311-.319-.341-.447s-.038-1.06-.024-2.798c.021-1.74-.025-2.884-.14-3.432a.415.415 0 0 1 .014-.273c.036-.165.219-.321.551-.467.339-.147.845-.3 1.518-.459.68-.161 1.219-.25 1.619-.27.406-.021.625.032.655.159.02.085-.026.159-.138.223s-.212.117-.299.16a28.49 28.49 0 0 1-.349.138c-.145.049-.28.096-.404.14a11.76 11.76 0 0 0-.489.16c-.193.068-.372.133-.537.194-.167.054-.391.133-.673.237s-.465.169-.548.197c.012.02.023.051.033.093.079.333.122 1.13.129 2.392.444-.082.913-.204 1.405-.365.5-.163.806-.258.92-.284.269-.064.417-.039.444.075.052.219-.212.476-.793.77a8.668 8.668 0 0 1-1.955.697zm6.935-1.951a2.015 2.015 0 0 0-.278-.652c-.13-.201-.281-.334-.453-.398-.457.25-.788.728-.995 1.435-.201.698-.237 1.32-.108 1.865s.344.853.645.924c.486-.219.836-.668 1.049-1.347.219-.687.265-1.296.139-1.827zm-2.772.755c.117-.611.332-1.14.645-1.588.318-.456.686-.734 1.104-.833.425-.1.822-.003 1.191.291.367.287.612.689.735 1.206.121.51.121 1.063.001 1.66a3.774 3.774 0 0 1-.716 1.571c-.35.449-.769.731-1.258.846-.361.085-.702-.01-1.021-.286s-.54-.669-.661-1.179c-.122-.517-.129-1.08-.019-1.689zm7.585-1.892a2.015 2.015 0 0 0-.278-.652c-.13-.201-.281-.334-.453-.398-.457.25-.788.728-.995 1.435-.201.698-.237 1.32-.108 1.865s.344.853.645.924c.486-.22.836-.669 1.049-1.347.219-.687.265-1.296.139-1.827zm-2.771.756c.117-.611.332-1.14.645-1.588.318-.456.686-.734 1.104-.833.425-.1.822-.003 1.191.291.367.287.612.689.735 1.206.121.51.121 1.063.001 1.66a3.774 3.774 0 0 1-.716 1.571c-.35.449-.769.731-1.258.846-.361.085-.702-.01-1.021-.286s-.54-.669-.661-1.179c-.122-.517-.129-1.08-.019-1.689zm7.791-6.988c.113-.027.277.047.49.221.219.165.35.34.393.524s.079.729.107 1.635c.026.899.031 1.836.016 2.811-.02 2.188-.111 3.301-.274 3.34-.099.023-.223-.011-.372-.103-.143-.101-.226-.197-.248-.289s-.041-.282-.057-.57c-.526.872-1.048 1.369-1.565 1.491-.312.074-.628-.001-.951-.224-.315-.225-.509-.489-.581-.794-.104-.439-.111-.987-.02-1.644.096-.666.309-1.299.638-1.9s.745-.961 1.247-1.08.925.1 1.266.655c.005-1.586-.077-2.819-.248-3.699-.05-.212.002-.337.158-.374zm.067 5.491c-.091-.382-.234-.689-.431-.919-.19-.232-.376-.326-.561-.283-.305.072-.572.333-.801.784s-.382.943-.458 1.476c-.07.525-.063.965.021 1.319.03.127.101.219.211.275s.23.069.357.039c.276-.065.601-.351.974-.858a3.565 3.565 0 0 0 .698-1.645l.002-.135-.013-.053zm6.783-.636c.138.581-.009 1.131-.439 1.651-.432.513-.988.85-1.668 1.011-.673.159-1.27.117-1.791-.127-.523-.25-.821-.531-.895-.843-.05-.212-.012-.334.116-.364.113-.027.377.091.79.352.156.09.353.163.59.219.245.054.488.053.728-.004a2.382 2.382 0 0 0 1.227-.693c.329-.347.458-.669.388-.966-.045-.191-.231-.405-.556-.643s-.675-.45-1.049-.639c-.368-.197-.716-.418-1.043-.662s-.512-.455-.554-.632c-.042-.177-.051-.373-.027-.588s.067-.379.131-.491c.204-.37.566-.751 1.087-1.143.527-.394.989-.637 1.386-.731.205-.048.395-.022.568.079s.278.226.313.375c.017.071-.044.145-.183.223s-.352.188-.64.33a5.273 5.273 0 0 0-.741.422c-.741.504-1.077.901-1.008 1.191.037.156.554.493 1.553 1.013.384.201.747.455 1.09.763.348.299.557.598.627.895zm2.44.534c.032.135.126.183.282.147.269-.064.577-.215.924-.454.353-.248.55-.377.593-.387.127-.03.207.022.239.157.049.205-.108.493-.469.862-.354.368-.705.593-1.052.674-.34.08-.645.055-.915-.075-.272-.138-.431-.306-.478-.504s-.064-.46-.051-.784c.011-.332.035-.767.072-1.307.042-.548.07-1 .083-1.354-.314.156-.528.248-.642.275s-.24-.003-.38-.09c-.135-.095-.215-.196-.24-.302-.04-.17.381-.441 1.265-.815a7.64 7.64 0 0 0-.179-1.606c-.05-.212-.005-.335.137-.369.12-.028.288.014.502.128.212.107.341.256.386.447s.065.542.059 1.052c.395-.131.713-.224.954-.281.425-.1.659-.058.703.126.025.106-.071.222-.288.348-.21.124-.665.348-1.367.67-.016.595-.052 1.28-.107 2.055-.057.769-.067 1.231-.03 1.387zm4.747-5.562c.319-.075.651.018.998.28.345.255.548.514.61.776.06.255.034.538-.079.849.11.086.174.168.193.246.047.198.081.549.104 1.052.029.502.051.829.065.983a3.387 3.387 0 0 1 .05.638c.014.184-.029.287-.128.311-.127.03-.26-.055-.397-.254-.132-.208-.246-.488-.345-.838-.441.949-.93 1.487-1.468 1.614-.326.077-.681.015-1.065-.186-.379-.21-.603-.463-.674-.761-.101-.425-.069-.986.095-1.682.162-.704.433-1.358.813-1.964s.79-.96 1.229-1.064zm.932 1.754c-.156-.659-.365-.957-.627-.895-.276.065-.551.339-.826.823-.276.476-.483.993-.62 1.548s-.172.979-.103 1.269c.029.12.102.208.219.262a.606.606 0 0 0 .376.023c.333-.079.655-.39.967-.935.31-.552.471-1.169.481-1.852-.004-.111.041-.189.135-.234l-.002-.011z"/><path fill="#BBF330" style="fill:var(--color4,#bbf330)" d="M33.157 19.973a.916.916 0 0 0-.643.602c-1.911 5.65-7.264 9.719-13.571 9.719a14.284 14.284 0 0 1-9.867-3.935.915.915 0 0 0-.848-.232c-.641.158-.883.934-.408 1.392a15.988 15.988 0 0 0 11.122 4.48c7.097 0 13.116-4.605 15.224-10.986.207-.626-.369-1.199-1.009-1.041zM4.187 14.15a.907.907 0 0 0 .667-.725c1.214-6.664 7.058-11.72 14.089-11.72 4.571 0 8.641 2.137 11.262 5.464.22.279.58.414.925.328.585-.144.85-.825.48-1.301A16.009 16.009 0 0 0 18.943-.002c-7.903 0-14.47 5.711-15.786 13.224-.104.592.446 1.07 1.03.926z"/><path fill="#BBF330" style="fill:var(--color4,#bbf330);stroke:var(--color4,#bbf330)" stroke="#BBF330" stroke-linejoin="round" stroke-width=".627" d="M43.041 5.332c-3.787 7.241-5.45 2.465-10.782 5.271.533-8.406 6.18-3.291 10.782-5.271z"/></symbol><symbol id="mobile-menu-btn" viewBox="0 0 32 32"><path d="M2.666 8A1.335 1.335 0 0 1 4 6.666h24A1.33 1.33 0 0 1 29.333 8 1.333 1.333 0 0 1 28 9.334H4A1.335 1.335 0 0 1 2.666 8zm0 8.043A1.33 1.33 0 0 1 4 14.71h24a1.333 1.333 0 1 1 0 2.666H4a1.333 1.333 0 0 1-1.334-1.333zM4 22.752a1.337 1.337 0 0 0-1.334 1.333A1.33 1.33 0 0 0 4 25.418h24a1.333 1.333 0 1 0 0-2.666H4z"/></symbol><symbol id="mobile-menu-btn-close" viewBox="0 0 30 32"><path d="m16.219 14.826 4.928-4.924a1.012 1.012 0 0 0-1.43-1.428l-4.928 4.873-4.958-4.954a1.013 1.013 0 0 0-1.43 1.428l4.948 5.005-4.846 4.782a1.002 1.002 0 0 0-.284 1.139 1.014 1.014 0 0 0 1.714.29l4.836-4.833 4.806 4.802a1.013 1.013 0 0 0 1.43-1.428l-4.786-4.751z"/></symbol><symbol id="arrow-left" viewBox="0 0 18 32"><path d="m.48 16.965 14.861 14.16a1.334 1.334 0 0 0 1.84 0l.016-.016a1.237 1.237 0 0 0 .382-.889 1.22 1.22 0 0 0-.382-.889L3.202 15.998 17.197 2.67a1.222 1.222 0 0 0 .282-1.373 1.231 1.231 0 0 0-.282-.405l-.016-.016a1.336 1.336 0 0 0-1.84 0L.48 15.036a1.331 1.331 0 0 0 0 1.93z"/></symbol><symbol id="arrow-right" viewBox="0 0 18 32"><path d="M17.653 15.035 2.792.875a1.334 1.334 0 0 0-1.84 0L.936.891a1.222 1.222 0 0 0-.282 1.373c.066.153.162.291.282.405l13.995 13.333L.936 29.33a1.237 1.237 0 0 0-.382.889 1.22 1.22 0 0 0 .382.889l.016.016a1.334 1.334 0 0 0 1.84 0l14.861-14.16a1.331 1.331 0 0 0 0-1.93z"/></symbol><symbol id="logo-svg" viewBox="0 0 43 32"><path fill="#ffe550" style="fill:var(--color1,#ffe550)" d="M14.732 8.449c1.446-2.818 5.48-2.818 6.926 0a3.889 3.889 0 0 0 2.849 2.06c3.119.493 4.381 4.322 2.144 6.55a3.857 3.857 0 0 0-1.088 3.34c.494 3.117-2.785 5.468-5.601 4.043a3.931 3.931 0 0 0-3.533 0c-2.816 1.424-6.095-.927-5.601-4.043a3.863 3.863 0 0 0-1.088-3.34c-2.238-2.227-.975-6.057 2.144-6.55a3.89 3.89 0 0 0 2.849-2.06z"/><path fill="#2c2c2c" style="fill:var(--color2,#2c2c2c)" d="m2.709 20.651-.021.005c.003.074-.001.373-.012.898-.003.523-.004.866-.003 1.03 0 .157-.004.284-.01.383l.001.335c-.002.12-.008.218-.02.296l-.019.206c-.014.13-.042.2-.085.21-.092.022-.237-.049-.433-.211-.198-.17-.312-.318-.343-.445s-.038-1.058-.022-2.792c.022-1.736-.024-2.877-.139-3.425a.418.418 0 0 1 .014-.272c.036-.165.22-.32.554-.466.34-.147.848-.3 1.524-.459.683-.161 1.224-.251 1.625-.27.408-.021.627.032.657.159.02.085-.026.159-.138.223s-.212.117-.3.16l-.35.138c-.146.049-.281.096-.406.14-.126.037-.29.091-.491.16-.194.068-.374.133-.539.194-.167.054-.393.133-.676.237s-.467.169-.55.196c.012.02.023.05.033.093.079.332.122 1.127.129 2.386.446-.082.916-.204 1.411-.365.502-.163.81-.258.923-.284.27-.064.419-.039.446.074.052.219-.213.475-.797.769a8.769 8.769 0 0 1-1.963.696zM9.672 18.701a1.999 1.999 0 0 0-.279-.651c-.13-.201-.282-.333-.455-.397-.459.25-.792.727-.999 1.432-.202.696-.239 1.317-.109 1.861s.345.851.647.922c.488-.219.84-.667 1.054-1.344.22-.686.267-1.293.14-1.823zm-2.782.755c.118-.61.334-1.138.648-1.584.32-.456.689-.733 1.109-.831.427-.1.825-.004 1.195.29.368.286.614.687.737 1.203.121.509.121 1.061 0 1.656a3.773 3.773 0 0 1-.719 1.568c-.351.448-.772.73-1.263.845-.363.085-.704-.01-1.025-.285s-.542-.667-.663-1.176c-.123-.516-.129-1.077-.018-1.685zM14.505 17.565a1.999 1.999 0 0 0-.279-.651c-.13-.201-.282-.333-.455-.397-.459.25-.792.727-.999 1.432-.202.696-.239 1.317-.109 1.861s.345.851.647.922c.488-.219.84-.667 1.054-1.344.22-.686.267-1.293.14-1.823zm-2.782.755c.118-.61.334-1.138.648-1.584.32-.456.689-.733 1.109-.831.427-.1.825-.004 1.195.29.368.286.614.687.737 1.203.121.509.121 1.061 0 1.656a3.773 3.773 0 0 1-.719 1.568c-.351.448-.772.73-1.263.845-.363.085-.704-.01-1.025-.285s-.542-.667-.663-1.176c-.123-.516-.129-1.077-.018-1.685zM19.547 11.345c.114-.027.278.047.492.22.219.165.351.339.395.523s.079.727.107 1.631c.026.897.03 1.832.014 2.805-.021 2.183-.113 3.294-.277 3.332-.1.023-.224-.011-.374-.102-.144-.1-.227-.197-.249-.288s-.041-.281-.056-.569c-.529.87-1.053 1.366-1.572 1.488-.313.074-.631-.001-.954-.223-.316-.224-.51-.488-.583-.792-.104-.438-.11-.985-.019-1.64.097-.664.311-1.296.641-1.896s.748-.959 1.253-1.078c.505-.119.928.099 1.27.652.006-1.583-.076-2.813-.248-3.69-.05-.212.003-.336.159-.373zm.065 5.478c-.091-.381-.235-.687-.432-.917-.19-.231-.378-.325-.563-.282-.306.072-.574.333-.805.782s-.384.941-.46 1.473c-.071.524-.064.962.02 1.316.03.127.101.219.212.275s.23.069.358.039c.277-.065.604-.351.979-.857a3.561 3.561 0 0 0 .702-1.642l.002-.135-.013-.053zM26.421 16.184c.138.579-.009 1.128-.441 1.648a3.044 3.044 0 0 1-1.675 1.009c-.675.159-1.275.117-1.798-.125-.525-.25-.824-.53-.898-.841-.05-.212-.012-.333.116-.363.114-.027.378.09.793.351.157.09.354.163.593.219.246.054.489.053.731-.004a2.403 2.403 0 0 0 1.232-.692c.331-.346.461-.668.39-.964-.045-.191-.231-.404-.558-.641s-.677-.449-1.052-.636c-.37-.197-.719-.417-1.047-.66s-.513-.454-.555-.63c-.042-.177-.051-.372-.027-.587s.068-.378.131-.49c.205-.369.569-.749 1.091-1.14.53-.393.994-.636 1.392-.73.206-.048.396-.022.571.078s.279.225.314.374c.017.071-.044.145-.184.222s-.353.187-.642.33a5.204 5.204 0 0 0-.744.421c-.744.503-1.081.899-1.012 1.189.037.155.556.492 1.558 1.01.386.2.75.454 1.093.761.349.298.559.596.629.893zM28.87 16.716c.032.134.126.183.283.146.27-.064.58-.215.928-.453.354-.247.552-.376.595-.386.128-.03.208.022.24.156.049.205-.108.492-.471.86-.356.367-.708.592-1.056.674-.341.08-.648.055-.919-.075-.273-.137-.433-.305-.48-.503s-.064-.459-.051-.782c.011-.331.036-.765.073-1.304.042-.547.07-.997.084-1.351-.316.156-.53.248-.644.275s-.241-.003-.382-.089c-.135-.095-.215-.196-.241-.302-.04-.169.383-.441 1.271-.813a7.617 7.617 0 0 0-.179-1.603c-.05-.212-.005-.335.138-.368.121-.028.289.014.503.128.213.107.342.255.388.446s.065.54.058 1.049c.397-.131.716-.224.958-.281.427-.1.662-.059.706.125.025.106-.071.222-.289.348-.211.124-.668.347-1.372.669a47.72 47.72 0 0 1-.109 2.051c-.058.767-.068 1.228-.031 1.384zM33.639 11.164c.32-.075.654.018 1.001.279.346.254.55.512.612.774.06.254.034.537-.08.847.111.086.175.168.194.245.047.198.082.548.103 1.05.029.5.05.827.064.981a3.374 3.374 0 0 1 .05.637c.014.183-.029.287-.129.31-.128.03-.261-.054-.398-.253a3.17 3.17 0 0 1-.345-.836c-.443.947-.935 1.484-1.475 1.611-.327.077-.683.015-1.069-.185-.38-.209-.605-.462-.676-.758-.101-.424-.069-.983.096-1.678.163-.702.436-1.356.817-1.96s.793-.959 1.234-1.062zm.935 1.75c-.156-.657-.366-.954-.629-.893-.277.065-.554.339-.829.822-.277.475-.485.991-.623 1.545s-.173.977-.104 1.266c.029.12.102.207.22.262a.609.609 0 0 0 .377.023c.334-.079.658-.39.972-.933a3.813 3.813 0 0 0 .484-1.848c-.004-.111.041-.189.136-.233l-.002-.011z"/><path fill="#bbf330" style="fill:var(--color3,#bbf330)" d="M31.525 20.209c1.082-.266 2.047.704 1.631 1.738A16.096 16.096 0 0 1 18.212 32a16.083 16.083 0 0 1-10.425-3.811c-.853-.721-.45-2.033.635-2.3.485-.119.993.017 1.38.331a13.286 13.286 0 0 0 8.41 2.977 13.293 13.293 0 0 0 12.24-8.048 1.598 1.598 0 0 1 1.073-.941zM4.193 13.954c-.977.24-1.894-.56-1.668-1.54C4.162 5.304 10.564 0 18.212 0c4.871 0 9.237 2.152 12.188 5.552.662.763.222 1.904-.759 2.145-.558.137-1.14-.071-1.525-.498a13.292 13.292 0 0 0-9.904-4.397c-6.238 0-11.455 4.261-12.895 9.993-.141.561-.561 1.021-1.123 1.159z"/><path fill="#bbf330" style="fill:var(--color3,#bbf330);stroke:var(--color3,#bbf330)" stroke="#bbf330" stroke-linejoin="round" stroke-width="1.031" d="M42.409 5.331c-3.803 7.241-5.473 2.465-10.826 5.271.535-8.406 6.205-3.291 10.826-5.271z"/></symbol></defs></svg>