<svg aria-hidden="true" style="position:absolute;width:0;height:0;overflow:hidden" xmlns="http://www.w3.org/2000/svg">
  <defs>
    <symbol id="icon-Favicon" viewBox="0 0 32 32">
      <path fill="#fff" style="fill:var(--color1, #fff)" d="M0 0h32v32H0V0z"/>
      <path fill="#ffe550" style="fill:var(--color2, #ffe550)" d="M13.557 6.456c1.012-1.982 3.84-1.982 4.852 0l1.281 2.51a2.726 2.726 0 0 0 1.999 1.453l2.775.441c2.198.35 3.073 3.049 1.499 4.625l-1.98 1.983a2.73 2.73 0 0 0-.765 2.356l.437 2.773c.347 2.2-1.942 3.868-3.925 2.859l-2.513-1.278a2.722 2.722 0 0 0-2.467 0l-2.513 1.278c-1.983 1.009-4.272-.659-3.925-2.859l.437-2.773a2.731 2.731 0 0 0-.765-2.356l-1.98-1.983c-1.574-1.576-.699-4.275 1.499-4.625l2.775-.441a2.728 2.728 0 0 0 1.999-1.453l1.281-2.51z"/>
      <path fill="#bbf330" style="fill:var(--color3, #bbf330)" d="M16 32C7.163 32 0 24.837 0 16S7.163 0 16 0s16 7.163 16 16-7.163 16-16 16zm0-1.706c7.899 0 14.297-6.402 14.297-14.294S23.899 1.706 16 1.706 1.703 8.108 1.703 16 8.101 30.294 16 30.294z"/>
    </symbol>
  </defs>
</svg>